<svg version="1.1" xmlns="http://www.w3.org/2000/svg" xmlns:xlink="http://www.w3.org/1999/xlink" width="568.77802" height="133.2431" viewBox="0,0,568.77802,133.2431"><defs><linearGradient x1="72.56983" y1="207.63748" x2="-31.74658" y2="147.89108" gradientUnits="userSpaceOnUse" id="color-1"><stop offset="0" stop-color="#00b5ff"/><stop offset="1" stop-color="#00e6ff"/></linearGradient><linearGradient x1="70.22617" y1="133.96784" x2="91.89283" y2="133.96784" gradientUnits="userSpaceOnUse" id="color-2"><stop offset="0" stop-color="#00b5ff"/><stop offset="1" stop-color="#00e6ff"/></linearGradient><linearGradient x1="-33.80443" y1="227.16932" x2="-12.13777" y2="227.16932" gradientUnits="userSpaceOnUse" id="color-3"><stop offset="0" stop-color="#00b5ff"/><stop offset="1" stop-color="#00e6ff"/></linearGradient></defs><g transform="translate(44.38901,-113.37845)"><g data-paper-data="{&quot;isPaintingLayer&quot;:true}" fill-rule="nonzero" stroke-linejoin="miter" stroke-miterlimit="10" stroke-dasharray="" stroke-dashoffset="0" style="mix-blend-mode: normal"><path d="M-19.54995,156.28895c9.07086,-4.24441 10.99375,-5.64537 16.76064,-9.96865c5.7669,-4.32324 6.7991,-5.1376 13.41681,-12.6544c7.7886,-8.84678 14.16806,-20.52113 19.39841,-20.02993c4.69467,0.50305 6.29117,11.60435 10.58973,21.60503c4.17199,9.70626 4.37047,10.83531 9.75471,18.55847c5.38425,7.72316 7.67194,11.39795 15.81892,18.12428c8.3941,6.9304 18.80356,10.30292 17.88509,15.37206c-0.87889,4.30716 -14.89242,8.30748 -25.56829,13.30284c-9.07089,4.2444 -10.05489,4.34391 -16.20669,8.41703c-6.15179,4.07312 -6.59593,4.61764 -13.2136,12.13444c-7.7886,8.84682 -15.44241,20.33064 -19.8232,19.96647c-4.6312,-0.92782 -5.86641,-11.54083 -10.16494,-21.54153c-4.17199,-9.70622 -4.6492,-11.2417 -9.81825,-18.13371c-5.16905,-6.89198 -7.57956,-9.19934 -15.72653,-15.92567c-8.3941,-6.9304 -18.80356,-10.30292 -17.88509,-15.37206c0.87885,-4.30717 14.10633,-8.85927 24.78219,-13.85466z" data-paper-data="{&quot;index&quot;:null}" fill="url(#color-1)" stroke="#000000" stroke-width="0" stroke-linecap="round"/><path d="M14.33032,169.93897c-3.94309,-0.37368 -3.56941,-4.31678 -3.56941,-4.31678l0.38396,-3.98733c-0.05818,-3.59762 0.14951,-7.20097 0.48538,-10.78336c0,0 0.37368,-3.94309 4.31678,-3.56941c3.94309,0.37368 3.56941,4.31678 3.56941,4.31678c-0.32941,3.4363 -0.51194,6.8945 -0.45611,10.3461l-0.41323,4.42459c0,0 -0.37368,3.94309 -4.31678,3.56941z" fill="#005d82" stroke="none" stroke-width="0.5" stroke-linecap="butt"/><path d="M31.94963,171.27392c-3.94309,-0.37368 -3.56941,-4.31678 -3.56941,-4.31678l0.38397,-3.98733c-0.05819,-3.59763 0.14951,-7.20097 0.48537,-10.78336c0,0 0.37368,-3.94309 4.31678,-3.56941c3.94309,0.37368 3.56941,4.31678 3.56941,4.31678c-0.32942,3.4363 -0.51194,6.8945 -0.45611,10.3461l-0.41323,4.42459c0,0 -0.37368,3.94309 -4.31678,3.56941z" fill="#005d82" stroke="none" stroke-width="0.5" stroke-linecap="butt"/><path d="M31.14251,180.97537c0,0 -5.708,2.5052 -10.28584,2.099c-4.45161,-0.39501 -9.46323,-3.57245 -9.46323,-3.57245" fill="none" stroke="#005d82" stroke-width="5.5" stroke-linecap="round"/><path d="M91.89283,133.96784c0,5.89104 -4.85024,10.66667 -10.83333,10.66667c-5.98309,0 -10.83333,-4.77563 -10.83333,-10.66667c0,-5.89103 4.85025,-10.66666 10.83333,-10.66666c5.98309,0 10.83333,4.77563 10.83333,10.66666z" fill="url(#color-2)" stroke="none" stroke-width="0" stroke-linecap="butt"/><path d="M-12.13777,227.16932c0,5.89104 -4.85024,10.66666 -10.83333,10.66666c-5.98309,0 -10.83333,-4.77563 -10.83333,-10.66666c0,-5.89103 4.85025,-10.66667 10.83333,-10.66667c5.98309,0 10.83333,4.77564 10.83333,10.66667z" fill="url(#color-3)" stroke="none" stroke-width="0" stroke-linecap="butt"/><path d="M115.59494,174.721c-3.75784,0 -7.15054,-0.44881 -10.17812,-1.34643c-3.02757,-0.89762 -5.71283,-2.20602 -8.05577,-3.92519c-2.34294,-1.71918 -4.44246,-3.75024 -6.29857,-6.09318l8.42091,-9.58477c2.7233,3.65134 5.4618,6.10839 8.21552,7.37115c2.75373,1.24754 5.60633,1.87131 8.55783,1.87131c1.46054,0 2.79176,-0.19018 3.99366,-0.57052c1.2019,-0.38035 2.12995,-0.93566 2.78415,-1.66592c0.6542,-0.74548 0.9813,-1.65832 0.9813,-2.73851c0,-0.82155 -0.20539,-1.55943 -0.61616,-2.21363c-0.41078,-0.6542 -0.97369,-1.22472 -1.68875,-1.71157c-0.69984,-0.50206 -1.54421,-0.95087 -2.53312,-1.34643c-0.97369,-0.41078 -2.00824,-0.7683 -3.10364,-1.07258c-1.08019,-0.30428 -2.19841,-0.56291 -3.35467,-0.77591c-3.14929,-0.71506 -5.903,-1.58985 -8.26116,-2.6244c-2.34294,-1.03455 -4.29033,-2.2973 -5.84215,-3.78827c-1.55182,-1.50618 -2.70808,-3.22535 -3.46878,-5.15752c-0.7607,-1.93217 -1.14104,-4.10015 -1.14104,-6.50395c0,-2.57115 0.58573,-4.92931 1.75721,-7.07448c1.17147,-2.16038 2.74612,-4.01648 4.72392,-5.5683c1.99303,-1.55182 4.29794,-2.74612 6.91473,-3.58288c2.63201,-0.85198 5.36291,-1.27797 8.1927,-1.27797c3.75784,0 6.98319,0.39556 9.67606,1.18669c2.70808,0.79112 5.0282,1.92456 6.96037,3.40031c1.93217,1.46054 3.58288,3.23296 4.95213,5.31727l-8.58065,8.26116c-1.15626,-1.43011 -2.4038,-2.60919 -3.74263,-3.53724c-1.32361,-0.92805 -2.73851,-1.63549 -4.24469,-2.12234c-1.49097,-0.48685 -3.02757,-0.73027 -4.60982,-0.73027c-1.6431,0 -3.05039,0.20539 -4.22186,0.61616c-1.17147,0.41078 -2.0843,0.9813 -2.73851,1.71157c-0.6542,0.73027 -0.9813,1.62028 -0.9813,2.67004c0,0.92805 0.27385,1.71918 0.82155,2.37337c0.5477,0.6542 1.28557,1.23994 2.21363,1.75721c0.92805,0.51727 1.98542,0.95087 3.1721,1.30079c1.2019,0.34992 2.45705,0.63898 3.76545,0.86719c3.01236,0.59334 5.72804,1.38446 8.14706,2.37337c2.41901,0.97369 4.51093,2.16798 6.27574,3.58288c1.78003,1.4149 3.14928,3.09603 4.10776,5.04342c0.95848,1.93217 1.43772,4.17622 1.43772,6.73216c0,3.98605 -0.97369,7.35594 -2.92107,10.10965c-1.93217,2.75372 -4.57179,4.85324 -7.91885,6.29857c-3.34706,1.44533 -7.20379,2.16798 -11.57019,2.16798zM150.67649,173.89945v-54.38218h13.09919v54.38218zM142.98585,141.92738v-11.45609h29.21074v11.45609zM199.91283,174.721c-4.79239,0 -8.961,-0.96609 -12.50585,-2.89825c-3.54485,-1.94738 -6.29857,-4.59461 -8.26116,-7.94167c-1.9626,-3.34706 -2.94389,-7.18097 -2.94389,-11.50173c0,-3.31664 0.54009,-6.36703 1.62028,-9.15118c1.0954,-2.78415 2.6244,-5.19555 4.587,-7.23422c1.9626,-2.05388 4.29033,-3.63613 6.98319,-4.74674c2.70808,-1.12583 5.67479,-1.68875 8.90015,-1.68875c3.04279,0 5.83454,0.5477 8.37527,1.6431c2.54073,1.0954 4.73153,2.6244 6.57242,4.587c1.8561,1.9626 3.271,4.28272 4.24469,6.96037c0.98891,2.66243 1.43011,5.57591 1.32361,8.7404l-0.06846,3.51442h-34.59647l-1.89413,-7.34833h25.85607l-1.39207,1.55182v-1.6431c-0.1065,-1.36925 -0.53249,-2.57876 -1.27797,-3.62852c-0.73027,-1.06497 -1.69636,-1.89413 -2.89825,-2.48748c-1.2019,-0.60855 -2.56355,-0.91284 -4.08494,-0.91284c-2.12995,0 -3.94801,0.42599 -5.45419,1.27797c-1.49097,0.83676 -2.6244,2.06149 -3.40031,3.67416c-0.7607,1.59746 -1.14104,3.56767 -1.14104,5.91061c0,2.4038 0.50206,4.49572 1.50618,6.27574c1.01933,1.76482 2.49509,3.14167 4.42725,4.13058c1.94738,0.97369 4.25229,1.46054 6.91473,1.46054c1.8561,0 3.50681,-0.27385 4.95213,-0.82155c1.44533,-0.5477 3.01236,-1.47575 4.7011,-2.78415l6.13882,8.67194c-1.68875,1.47575 -3.4916,2.67765 -5.40855,3.6057c-1.90174,0.92805 -3.84912,1.62028 -5.84215,2.0767c-1.99303,0.47163 -3.97083,0.70745 -5.93343,0.70745zM227.23453,173.89945v-60.521h13.07637v60.521zM252.09872,173.89945v-60.521h13.07637v60.521zM292.09681,174.62972c-3.65134,0 -6.91473,-0.96609 -9.79016,-2.89825c-2.86022,-1.93217 -5.1347,-4.60221 -6.82345,-8.01013c-1.68875,-3.40792 -2.53312,-7.26465 -2.53312,-11.57019c0,-4.42725 0.84437,-8.32962 2.53312,-11.70712c1.68875,-3.37749 4.00887,-6.03232 6.96037,-7.96449c2.9515,-1.94738 6.30617,-2.92107 10.06401,-2.92107c2.06909,0 3.96323,0.30428 5.6824,0.91284c1.71918,0.59334 3.23296,1.4225 4.54136,2.48748c1.3084,1.06497 2.42662,2.2973 3.35467,3.69698c0.92805,1.38446 1.60507,2.86782 2.03106,4.45007l-2.69286,-0.34231v-10.29222h13.00791v43.42815h-13.25894v-10.47479l2.94389,-0.06846c-0.42599,1.52139 -1.13344,2.96672 -2.12234,4.33597c-0.97369,1.35404 -2.17559,2.54833 -3.6057,3.58288c-1.4149,1.03455 -2.99715,1.8561 -4.74674,2.46466c-1.73439,0.59334 -3.58288,0.89001 -5.54548,0.89001zM295.70251,163.58441c2.00824,0 3.75024,-0.45642 5.22598,-1.36925c1.47575,-0.92805 2.61679,-2.25166 3.42313,-3.97083c0.82155,-1.71918 1.23233,-3.75024 1.23233,-6.09318c0,-2.34294 -0.41078,-4.374 -1.23233,-6.09318c-0.80634,-1.71918 -1.94738,-3.058 -3.42313,-4.01648c-1.47575,-0.95848 -3.21775,-1.43772 -5.22598,-1.43772c-1.9626,0 -3.66655,0.47924 -5.11188,1.43772c-1.44533,0.95848 -2.57876,2.2973 -3.40031,4.01648c-0.82155,1.71918 -1.23233,3.75024 -1.23233,6.09318c0,2.34294 0.41078,4.374 1.23233,6.09318c0.82155,1.71918 1.95499,3.04279 3.40031,3.97083c1.44533,0.91284 3.14928,1.36925 5.11188,1.36925zM329.95336,173.89945v-43.42815h12.43738l0.57052,14.14895l-2.44184,-2.69286c0.6542,-2.34294 1.72678,-4.44246 3.21775,-6.29857c1.50618,-1.8561 3.26339,-3.33185 5.27163,-4.42725c2.02345,-1.0954 4.18383,-1.6431 6.48113,-1.6431c0.97369,0 1.87892,0.08367 2.71569,0.25103c0.85198,0.16736 1.63549,0.35752 2.35055,0.57052l-3.6057,14.49126c-0.59334,-0.38035 -1.39968,-0.69224 -2.41901,-0.93566c-1.00412,-0.25864 -2.05388,-0.38796 -3.14928,-0.38796c-1.18669,0 -2.30491,0.20539 -3.35467,0.61616c-1.03455,0.41078 -1.90935,0.99651 -2.6244,1.75721c-0.69984,0.7607 -1.25515,1.66592 -1.66592,2.71569c-0.41078,1.03455 -0.61616,2.20602 -0.61616,3.51442v21.74831z" fill="#ffffff" stroke="none" stroke-width="1" stroke-linecap="square"/><path d="M120.75246,246.2336c-4.74674,0 -8.97621,-0.96609 -12.68841,-2.89825c-3.7122,-1.94738 -6.61806,-4.60982 -8.71758,-7.98731c-2.09952,-3.37749 -3.14928,-7.24943 -3.14928,-11.61583v-35.25827h14.08049v34.528c0,2.06909 0.46403,3.9328 1.39207,5.59112c0.92805,1.65832 2.1832,2.96672 3.76545,3.92519c1.58225,0.95848 3.35467,1.43772 5.31727,1.43772c2.06909,0 3.90237,-0.47924 5.49983,-1.43772c1.61267,-0.95848 2.90586,-2.26688 3.87955,-3.92519c0.98891,-1.65832 1.48336,-3.52203 1.48336,-5.59112v-34.528h13.57843v35.25827c0,4.3664 -1.04976,8.23834 -3.14928,11.61583c-2.09952,3.37749 -5.00538,6.03993 -8.71758,7.98731c-3.69698,1.93217 -7.88842,2.89825 -12.57431,2.89825zM157.78529,245.73154v-43.42815h12.43738l0.41078,8.83168l-2.6244,0.9813c0.60855,-1.9626 1.68875,-3.75024 3.24057,-5.36291c1.55182,-1.61267 3.41552,-2.90586 5.59112,-3.87955c2.19081,-0.98891 4.48811,-1.48336 6.89191,-1.48336c3.271,0 6.02471,0.66942 8.26116,2.00824c2.23645,1.33882 3.92519,3.33185 5.06624,5.97907c1.14104,2.64722 1.71157,5.88018 1.71157,9.69888v26.6548h-13.16765v-25.60504c0,-1.73439 -0.24342,-3.1721 -0.73027,-4.31315c-0.48685,-1.15626 -1.23994,-2.01585 -2.25927,-2.57876c-1.00412,-0.57813 -2.24406,-0.84437 -3.7198,-0.79873c-1.14104,0 -2.20602,0.18257 -3.19492,0.5477c-0.97369,0.34992 -1.81806,0.86719 -2.53312,1.55182c-0.69984,0.68463 -1.25515,1.46054 -1.66592,2.32773c-0.41078,0.86719 -0.61616,1.81806 -0.61616,2.85261v26.01581h-6.45831c-1.53661,0 -2.85261,0 -3.94801,0c-1.08019,0 -1.97781,0 -2.69286,0zM235.82907,246.62155c-1.9626,0 -3.84912,-0.27385 -5.65958,-0.82155c-1.79524,-0.53249 -3.41552,-1.26276 -4.86085,-2.19081c-1.44533,-0.92805 -2.64722,-2.00063 -3.6057,-3.21775c-0.94327,-1.23233 -1.58225,-2.50269 -1.91695,-3.81109l2.87543,-0.9813l-0.75309,10.04119h-12.18635v-60.42971h13.16765v27.47635l-2.69286,-0.9813c0.3347,-1.4149 0.96609,-2.7309 1.89413,-3.94801c0.92805,-1.23233 2.09952,-2.32773 3.51442,-3.28621c1.4149,-0.95848 2.96672,-1.71157 4.65546,-2.25927c1.68875,-0.5477 3.43074,-0.82155 5.22598,-0.82155c3.77306,0 7.11251,0.97369 10.01837,2.92107c2.92107,1.93217 5.22598,4.60221 6.91473,8.01013c1.68875,3.40792 2.53312,7.29508 2.53312,11.66147c0,4.41204 -0.82916,8.32202 -2.48748,11.72994c-1.65832,3.40792 -3.9328,6.07797 -6.82345,8.01013c-2.89064,1.93217 -6.16164,2.89825 -9.81298,2.89825zM232.38312,235.59906c1.9626,0 3.68177,-0.48685 5.15752,-1.46054c1.47575,-0.98891 2.60919,-2.34294 3.40031,-4.06212c0.79112,-1.71918 1.18669,-3.75024 1.18669,-6.09318c0,-2.2973 -0.39556,-4.31315 -1.18669,-6.04754c-0.79112,-1.7496 -1.92456,-3.08843 -3.40031,-4.01648c-1.47575,-0.92805 -3.19492,-1.39207 -5.15752,-1.39207c-2.00824,0 -3.75024,0.46403 -5.22598,1.39207c-1.47575,0.92805 -2.6244,2.26688 -3.44595,4.01648c-0.80634,1.73439 -1.20951,3.75024 -1.20951,6.04754c0,2.34294 0.40317,4.374 1.20951,6.09318c0.82155,1.71918 1.97021,3.07321 3.44595,4.06212c1.47575,0.97369 3.21775,1.46054 5.22598,1.46054zM263.63111,245.73154v-60.521h13.07637v60.521zM308.03363,246.55309c-4.51854,0 -8.53501,-0.9813 -12.04943,-2.94389c-3.51442,-1.9626 -6.29857,-4.63264 -8.35245,-8.01013c-2.03867,-3.3927 -3.058,-7.26465 -3.058,-11.61583c0,-4.3664 1.01933,-8.23834 3.058,-11.61583c2.05388,-3.37749 4.83803,-6.04754 8.35245,-8.01013c3.51442,-1.97781 7.53089,-2.96672 12.04943,-2.96672c4.53375,0 8.55783,0.98891 12.07225,2.96672c3.51442,1.9626 6.27574,4.63264 8.28398,8.01013c2.02345,3.37749 3.03518,7.24943 3.03518,11.61583c0,4.35118 -1.01173,8.22313 -3.03518,11.61583c-2.00824,3.37749 -4.76957,6.04754 -8.28398,8.01013c-3.51442,1.9626 -7.5385,2.94389 -12.07225,2.94389zM308.03363,235.25675c1.9626,0 3.70459,-0.48685 5.22598,-1.46054c1.53661,-0.98891 2.73851,-2.32773 3.6057,-4.01648c0.88241,-1.68875 1.29318,-3.62091 1.23233,-5.79651c0.06085,-2.19081 -0.34992,-4.13819 -1.23233,-5.84215c-0.86719,-1.71918 -2.06909,-3.07321 -3.6057,-4.06212c-1.52139,-0.98891 -3.26339,-1.48336 -5.22598,-1.48336c-1.9626,0 -3.7198,0.49445 -5.27163,1.48336c-1.55182,0.98891 -2.76894,2.34294 -3.65134,4.06212c-0.86719,1.70396 -1.27036,3.65134 -1.20951,5.84215c-0.06085,2.17559 0.34231,4.10776 1.20951,5.79651c0.88241,1.68875 2.09952,3.02757 3.65134,4.01648c1.55182,0.97369 3.30903,1.46054 5.27163,1.46054zM359.0918,246.55309c-4.19904,0 -7.96449,-0.9813 -11.29634,-2.94389c-3.33185,-1.9626 -5.96386,-4.64785 -7.89603,-8.05577c-1.93217,-3.40792 -2.89825,-7.26465 -2.89825,-11.57019c0,-4.30554 0.96609,-8.16227 2.89825,-11.57019c1.93217,-3.40792 4.56418,-6.09318 7.89603,-8.05577c3.33185,-1.97781 7.0973,-2.96672 11.29634,-2.96672c3.86434,0 7.41679,0.68463 10.65736,2.05388c3.24057,1.36925 5.81933,3.2786 7.73628,5.72804l-7.12012,8.51219c-0.7607,-0.88241 -1.65832,-1.70396 -2.69286,-2.46466c-1.03455,-0.7607 -2.1832,-1.35404 -3.44595,-1.78003c-1.24754,-0.44121 -2.55594,-0.66181 -3.92519,-0.66181c-2.06909,0 -3.89476,0.47924 -5.47701,1.43772c-1.58225,0.94327 -2.80697,2.25927 -3.67416,3.94801c-0.86719,1.68875 -1.30079,3.62852 -1.30079,5.81933c0,2.06909 0.44881,3.94801 1.34643,5.63676c0.89762,1.68875 2.13755,3.02757 3.7198,4.01648c1.58225,0.97369 3.37749,1.46054 5.38573,1.46054c1.4149,0 2.7233,-0.17496 3.92519,-0.52488c1.2019,-0.36513 2.30491,-0.89762 3.30903,-1.59746c1.01933,-0.71506 1.9626,-1.58985 2.82979,-2.6244l7.02883,8.60348c-1.8561,2.34294 -4.43486,4.19904 -7.73628,5.5683c-3.28621,1.35404 -6.80823,2.03106 -10.56607,2.03106zM397.18627,232.97466l-4.81521,-9.81298l20.28777,-20.85829h17.25259zM384.58913,245.73154v-60.521h13.09919v60.521zM414.0509,245.73154l-15.31282,-19.78571l9.24246,-7.2114l21.5201,26.99711zM454.68889,246.55309c-4.79239,0 -8.961,-0.96609 -12.50585,-2.89825c-3.54485,-1.94738 -6.29857,-4.59461 -8.26116,-7.94167c-1.9626,-3.34706 -2.94389,-7.18097 -2.94389,-11.50173c0,-3.31664 0.54009,-6.36703 1.62028,-9.15118c1.0954,-2.78415 2.6244,-5.19555 4.587,-7.23422c1.9626,-2.05388 4.29033,-3.63613 6.98319,-4.74674c2.70808,-1.12583 5.67479,-1.68875 8.90015,-1.68875c3.04279,0 5.83454,0.5477 8.37527,1.6431c2.54073,1.0954 4.73153,2.6244 6.57242,4.587c1.8561,1.9626 3.271,4.28272 4.24469,6.96037c0.98891,2.66243 1.43011,5.57591 1.32361,8.7404l-0.06846,3.51442h-34.59647l-1.89413,-7.34833h25.85607l-1.39207,1.55182v-1.6431c-0.1065,-1.36925 -0.53249,-2.57876 -1.27797,-3.62852c-0.73027,-1.06497 -1.69636,-1.89413 -2.89825,-2.48748c-1.2019,-0.60855 -2.56355,-0.91284 -4.08494,-0.91284c-2.12995,0 -3.94801,0.42599 -5.45419,1.27797c-1.49097,0.83676 -2.6244,2.06149 -3.40031,3.67416c-0.7607,1.59746 -1.14104,3.56767 -1.14104,5.91061c0,2.4038 0.50206,4.49572 1.50618,6.27574c1.01933,1.76482 2.49509,3.14167 4.42725,4.13058c1.94738,0.97369 4.25229,1.46054 6.91473,1.46054c1.8561,0 3.50681,-0.27385 4.95213,-0.82155c1.44533,-0.5477 3.01236,-1.47575 4.7011,-2.78415l6.13882,8.67194c-1.68875,1.47575 -3.4916,2.67765 -5.40855,3.6057c-1.90174,0.92805 -3.84912,1.62028 -5.84215,2.0767c-1.99303,0.47163 -3.97083,0.70745 -5.93343,0.70745zM498.3732,246.62155c-3.75784,0 -7.0973,-0.96609 -10.01837,-2.89825c-2.92107,-1.93217 -5.22598,-4.60221 -6.91473,-8.01013c-1.68875,-3.40792 -2.53312,-7.29508 -2.53312,-11.66147c0,-4.35118 0.84437,-8.23073 2.53312,-11.63865c1.68875,-3.40792 4.00126,-6.09318 6.93755,-8.05577c2.9515,-1.97781 6.3366,-2.96672 10.1553,-2.96672c1.9626,0 3.84152,0.30428 5.63676,0.91284c1.81046,0.59334 3.44595,1.4149 4.90649,2.46466c1.47575,1.03455 2.67765,2.22124 3.6057,3.56006c0.92805,1.32361 1.47575,2.69286 1.6431,4.10776l-3.10364,0.75309v-27.97841h13.16765v60.521h-12.18635l-0.75309,-9.90427l2.6244,0.41078c-0.16736,1.36925 -0.69984,2.68526 -1.59746,3.94801c-0.89762,1.24754 -2.05388,2.35055 -3.46878,3.30903c-1.4149,0.94327 -3.04279,1.69636 -4.88367,2.25927c-1.82567,0.57813 -3.74263,0.86719 -5.75086,0.86719zM501.72787,235.75881c2.00824,0 3.75024,-0.48685 5.22598,-1.46054c1.47575,-0.98891 2.60919,-2.35816 3.40031,-4.10776c0.79112,-1.7496 1.18669,-3.79588 1.18669,-6.13882c0,-2.38858 -0.39556,-4.45768 -1.18669,-6.20728c-0.79112,-1.7496 -1.92456,-3.11125 -3.40031,-4.08494c-1.47575,-0.98891 -3.21775,-1.48336 -5.22598,-1.48336c-2.02345,0 -3.75784,0.49445 -5.20316,1.48336c-1.44533,0.97369 -2.57876,2.33534 -3.40031,4.08494c-0.80634,1.7496 -1.20951,3.8187 -1.20951,6.20728c0,2.34294 0.40317,4.38922 1.20951,6.13882c0.82155,1.7496 1.95499,3.11885 3.40031,4.10776c1.44533,0.97369 3.17971,1.46054 5.20316,1.46054z" fill="#ffffff" stroke="none" stroke-width="1" stroke-linecap="square"/></g></g></svg>
